<svg width="90" height="91" viewBox="0 0 90 91" fill="none" xmlns="http://www.w3.org/2000/svg">
<g clip-path="url(#clip0_1_4153)">
<path d="M44.9664 90.4769C69.8006 90.4769 89.9327 70.3448 89.9327 45.5106C89.9327 20.6763 69.8006 0.544189 44.9664 0.544189C20.1321 0.544189 0 20.6763 0 45.5106C0 70.3448 20.1321 90.4769 44.9664 90.4769Z" fill="#69D5DD"/>
<path d="M44.9664 90.4769C69.8006 90.4769 89.9327 70.3448 89.9327 45.5106C89.9327 20.6763 69.8006 0.544189 44.9664 0.544189C20.1321 0.544189 0 20.6763 0 45.5106C0 70.3448 20.1321 90.4769 44.9664 90.4769Z" fill="white" fill-opacity="0.7"/>
<path d="M6.45455 70.1886C8.69522 70.1886 10.5116 68.3722 10.5116 66.1316C10.5116 63.8909 8.69522 62.0745 6.45455 62.0745C4.21388 62.0745 2.39746 63.8909 2.39746 66.1316C2.39746 68.3722 4.21388 70.1886 6.45455 70.1886Z" fill="#A4E5EA"/>
<path d="M4.90403 88.1984C6.28837 88.1984 7.41059 87.0762 7.41059 85.6919C7.41059 84.3075 6.28837 83.1853 4.90403 83.1853C3.51969 83.1853 2.39746 84.3075 2.39746 85.6919C2.39746 87.0762 3.51969 88.1984 4.90403 88.1984Z" fill="#69D5DD"/>
<path d="M4.90403 88.1984C6.28837 88.1984 7.41059 87.0762 7.41059 85.6919C7.41059 84.3075 6.28837 83.1853 4.90403 83.1853C3.51969 83.1853 2.39746 84.3075 2.39746 85.6919C2.39746 87.0762 3.51969 88.1984 4.90403 88.1984Z" fill="white" fill-opacity="0.7"/>
<path d="M78.8931 26.1595C82.5181 26.1595 85.4568 23.2209 85.4568 19.5959C85.4568 15.9709 82.5181 13.0322 78.8931 13.0322C75.2681 13.0322 72.3295 15.9709 72.3295 19.5959C72.3295 23.2209 75.2681 26.1595 78.8931 26.1595Z" fill="#A4E5EA"/>
<path d="M87.2183 5.01555C88.1362 5.01555 88.8802 4.27153 88.8802 3.35372C88.8802 2.43592 88.1362 1.69189 87.2183 1.69189C86.3005 1.69189 85.5565 2.43592 85.5565 3.35372C85.5565 4.27153 86.3005 5.01555 87.2183 5.01555Z" fill="#69D5DD"/>
<path d="M87.2183 5.01555C88.1362 5.01555 88.8802 4.27153 88.8802 3.35372C88.8802 2.43592 88.1362 1.69189 87.2183 1.69189C86.3005 1.69189 85.5565 2.43592 85.5565 3.35372C85.5565 4.27153 86.3005 5.01555 87.2183 5.01555Z" fill="white" fill-opacity="0.7"/>
<path d="M47.9866 23.5326L41.9021 19.9535C42.7074 19.5061 43.5127 19.1482 44.4075 18.7903L50.492 22.3694C49.5972 22.6378 48.7919 23.0852 47.9866 23.5326Z" fill="#E6BA57"/>
<path d="M50.492 22.28L44.4075 18.7009C45.6602 18.1641 46.9128 17.8062 48.255 17.4482L54.3395 21.0274C52.9973 21.3853 51.7447 21.8327 50.492 22.28Z" fill="#E6BA57"/>
<path d="M54.3395 21.0274L48.255 17.4482C50.0446 16.9114 51.9236 16.5535 53.6237 16.3745L59.7082 19.9536C58.0081 20.1326 56.129 20.4905 54.3395 21.0274Z" fill="#E6BA57"/>
<path d="M59.7081 19.864L53.6237 16.2849C56.5764 15.8375 59.1713 15.6586 60.5134 15.5691L66.5979 19.1482C65.2558 19.3272 62.6609 19.4166 59.7081 19.864Z" fill="#E6BA57"/>
<path d="M66.5979 19.2376L60.5134 15.6584C61.0503 15.6584 61.4082 15.6584 61.4977 15.6584L67.5822 19.2376C67.5822 19.2376 67.2243 19.2376 66.5979 19.2376Z" fill="#E6BA57"/>
<path d="M48.1655 75.4299L42.0811 71.9402L41.9021 19.9536L47.9866 23.5327L48.1655 75.4299Z" fill="#E2AE39"/>
<path d="M47.9866 23.5327C55.0553 19.4167 66.9559 19.2378 67.6717 19.2378C67.7612 42.1441 68.3875 53.1499 48.1655 75.5193L47.9866 23.5327Z" fill="#EDCD84"/>
<path d="M35.6387 73.3719L29.5542 69.7928C22.1276 65.4979 22.396 54.85 22.396 38.2966L28.4805 41.8757C28.4805 58.3397 28.2121 69.077 35.6387 73.3719Z" fill="#E2AE39"/>
<path d="M28.391 41.8756L22.3065 38.2965C22.6644 37.9386 26.512 33.5542 30.9859 29.0803L37.0704 32.6594C32.5965 37.1333 28.7489 41.4283 28.391 41.8756Z" fill="#FFDC48"/>
<path d="M37.1598 32.6595L31.0753 29.0803C34.7439 25.5012 38.8599 21.7432 41.9916 19.9536L48.0761 23.5327C44.8549 25.3223 40.7389 28.9909 37.1598 32.6595Z" fill="#FFDC48"/>
<path d="M47.9866 23.5327L48.1656 75.4298C27.9436 76.4141 28.4805 64.782 28.391 41.8757C29.0173 41.1598 40.9179 27.5592 47.9866 23.5327Z" fill="#EDCD84"/>
<path d="M65.5242 21.0273C65.4347 21.0273 65.4347 21.0273 65.4347 21.0273H65.3452H65.2557H65.1663C65.1663 21.0273 65.1663 21.0273 65.0768 21.0273H64.9873C64.9873 21.0273 64.9873 21.0273 64.8978 21.0273H64.8084H64.7189C64.7189 21.0273 64.7189 21.0273 64.6294 21.0273H64.5399C64.4504 21.0273 64.4504 21.0273 64.361 21.0273C64.361 21.0273 64.361 21.0273 64.2715 21.0273H64.182C64.182 21.0273 64.182 21.0273 64.0925 21.0273C64.0031 21.0273 64.0031 21.0273 63.9136 21.0273C63.8241 21.0273 63.8241 21.0273 63.7346 21.0273C63.7346 21.0273 63.7346 21.0273 63.6451 21.0273C63.5557 21.0273 63.5557 21.0273 63.4662 21.0273C63.4662 21.0273 63.4662 21.0273 63.3767 21.0273C63.2872 21.0273 63.1978 21.0273 63.1978 21.0273C63.1978 21.1168 63.1978 21.2958 63.1978 21.3853C63.1978 21.3853 63.1978 21.3853 63.1978 21.4747C63.1978 21.6537 63.1978 21.8326 63.1978 22.0116C63.1978 22.1011 63.1978 22.1011 63.1978 22.1906C63.1978 22.3695 63.1978 22.5485 63.1978 22.8169V22.9064C63.1978 23.0853 63.1978 23.2643 63.1978 23.3538C63.1978 23.4432 63.1978 23.4432 63.1978 23.5327C63.1978 23.7117 63.1978 23.8906 63.1978 24.0696C63.1978 24.0696 63.1978 24.0696 63.1978 24.1591C63.1978 24.338 63.1978 24.517 63.1978 24.6959C63.1978 24.7854 63.1978 24.7854 63.1978 24.8749C63.1978 25.0538 63.1978 25.1433 63.1978 25.3223V25.4118C63.1978 25.5907 63.1978 25.7697 63.1978 25.9486V26.0381C63.1978 26.2171 63.1978 26.3065 63.1978 26.4855C63.1978 26.575 63.1978 26.575 63.1978 26.6644C63.1978 26.8434 63.1978 27.0224 63.1978 27.2013C63.1978 27.2013 63.1978 27.2013 63.1978 27.2908C63.1978 27.4697 63.1978 27.6487 63.1978 27.7382C63.1978 27.8277 63.1978 27.8277 63.1978 27.9171C63.1978 28.0961 63.1978 28.1856 63.1978 28.3645C63.1978 28.3645 63.1978 28.3645 63.1978 28.454C63.1978 28.633 63.1978 28.8119 63.1978 28.9909V29.0803C63.1978 29.2593 63.1978 29.3488 63.1978 29.5277V29.6172C63.1978 29.7962 63.1978 29.9751 63.1978 30.1541V30.2436C63.1978 30.4225 63.1978 30.512 63.1978 30.6909C63.1978 30.7804 63.1978 30.7804 63.1978 30.8699C63.1978 31.0489 63.1978 31.2278 63.1978 31.4068C63.1978 31.5857 63.1978 31.7647 63.1978 31.8542C63.1978 31.9436 63.1978 31.9436 63.1978 32.0331C63.1978 32.2121 63.1978 32.3015 63.1978 32.4805V32.57C63.1978 32.7489 63.1978 32.9279 63.1978 33.0174V33.1068C63.1978 33.1963 63.1978 33.3753 63.1978 33.4648V33.5542C63.1978 33.7332 63.1978 33.9121 63.1978 34.0016V34.0911C63.1978 34.1806 63.1978 34.3595 63.1978 34.449C63.1978 34.5385 63.1978 34.5385 63.1978 34.628C63.1978 34.8069 63.1978 34.8964 63.1978 35.0754C63.1978 35.2543 63.1978 35.4333 63.1978 35.5227V35.6122C63.1978 35.7017 63.1978 35.8807 63.1978 35.9701V36.0596C63.1978 36.2386 63.1978 36.328 63.1083 36.507V36.5965C63.1083 36.686 63.1083 36.8649 63.1083 36.9544V37.0439C63.1083 37.2228 63.1083 37.3123 63.0188 37.4913C63.0188 37.4913 63.0188 37.4913 63.0188 37.5807C63.0188 37.7597 63.0188 37.8492 62.9293 38.0281C62.9293 38.0281 62.9293 38.0281 62.9293 38.1176L65.5242 39.6387C65.5242 39.6387 65.5242 39.6387 65.5242 39.5492C65.5242 39.3703 65.5242 39.2808 65.6137 39.1019C65.6137 39.1019 65.6137 39.1019 65.6137 39.0124C65.6137 38.8334 65.6137 38.7439 65.7031 38.565V38.4755C65.7031 38.386 65.7031 38.2071 65.7031 38.1176V38.0281C65.7031 37.8492 65.7031 37.7597 65.7926 37.5807V37.4913C65.7926 37.4018 65.7926 37.2228 65.7926 37.1333V37.0439C65.7926 36.8649 65.7926 36.686 65.7926 36.5965C65.7926 36.4175 65.7926 36.328 65.7926 36.1491V36.0596C65.7926 35.8807 65.7926 35.7912 65.7926 35.6122V35.5227C65.7926 35.3438 65.7926 35.1648 65.7926 35.0754V34.9859C65.7926 34.8964 65.7926 34.7174 65.7926 34.628V34.5385C65.7926 34.3595 65.7926 34.1806 65.7926 34.0911V34.0016C65.7926 33.8227 65.7926 33.7332 65.7926 33.5542C65.7926 33.4648 65.7926 33.4648 65.7926 33.3753C65.7926 33.1963 65.7926 33.0174 65.7926 32.9279C65.7926 32.7489 65.7926 32.57 65.7926 32.391C65.7926 32.3015 65.7926 32.3015 65.7926 32.2121C65.7926 32.0331 65.7926 31.9436 65.7926 31.7647V31.6752C65.7926 31.4962 65.7926 31.3173 65.7926 31.1383V31.0489C65.7926 30.8699 65.7926 30.7804 65.7926 30.6015C65.7926 30.512 65.7926 30.512 65.7926 30.4225C65.7926 30.2436 65.7926 30.0646 65.7926 29.8856V29.7962C65.7926 29.6172 65.7926 29.5277 65.7926 29.3488C65.7926 29.2593 65.7926 29.2593 65.7926 29.1698C65.7926 28.9909 65.7926 28.9014 65.7926 28.7224C65.7926 28.7224 65.7926 28.7224 65.7926 28.633C65.7926 28.454 65.7926 28.275 65.7926 28.0961C65.7926 28.0066 65.7926 28.0066 65.7926 27.9171C65.7926 27.7382 65.7926 27.6487 65.7926 27.4697V27.3803C65.7926 27.2013 65.7926 27.0224 65.7926 26.8434V26.7539C65.7926 26.575 65.7926 26.4855 65.7926 26.3065C65.7926 26.2171 65.7926 26.2171 65.7926 26.1276C65.7926 25.9486 65.7926 25.7697 65.7926 25.5907C65.7926 25.5907 65.7926 25.5907 65.7926 25.5012C65.7926 25.3223 65.7926 25.1433 65.7926 24.9644C65.7926 24.8749 65.7926 24.8749 65.7926 24.7854C65.7926 24.6065 65.7926 24.4275 65.7926 24.338V24.2485C65.7926 24.0696 65.7926 23.8906 65.7926 23.6222C65.7926 23.5327 65.7926 23.5327 65.7926 23.4432C65.7926 23.2643 65.7926 23.1748 65.7926 22.9959C65.7926 22.7274 65.7926 22.5485 65.7926 22.28V22.1906C65.7926 22.0116 65.7926 21.8326 65.7926 21.7432C65.7926 21.6537 65.7926 21.6537 65.7926 21.5642C65.6137 21.4747 65.6137 21.2063 65.5242 21.0273C65.6137 21.0273 65.6137 21.0273 65.5242 21.0273Z" fill="#E2AE39"/>
<path d="M62.3925 38.207C62.3925 38.4755 62.303 38.8334 62.303 39.1018C62.303 39.1018 62.303 39.1018 62.303 39.1913C62.2135 39.5492 62.2135 39.8176 62.124 40.1755C62.0345 40.5335 62.0345 40.8019 61.9451 41.1598C61.9451 41.1598 61.9451 41.1598 61.9451 41.2493C61.8556 41.5177 61.8556 41.8756 61.7661 42.1441L64.361 43.6652C64.4504 43.3967 64.4504 43.0388 64.5399 42.7704C64.5399 42.7704 64.5399 42.7704 64.5399 42.6809C64.6294 42.4125 64.6294 42.0546 64.7189 41.7861C64.8084 41.4282 64.8084 41.1598 64.8978 40.8019C64.8978 40.8019 64.8978 40.8019 64.8978 40.7124C64.9873 40.444 64.9873 40.0861 64.9873 39.8176L62.3925 38.207Z" fill="#E2AE39"/>
<path d="M61.7661 42.144C61.7661 42.323 61.6766 42.5019 61.6766 42.6809V42.7704C61.6766 42.9493 61.5872 43.1283 61.4977 43.3072C61.4082 43.4862 61.4082 43.6651 61.3187 43.8441C61.3187 43.8441 61.3187 43.8441 61.3187 43.9336C61.2292 44.1125 61.2292 44.2915 61.1398 44.4704C61.1398 44.4704 61.1398 44.4704 61.1398 44.5599L63.7346 46.081C63.7346 46.081 63.7346 46.081 63.7346 45.9916C63.8241 45.8126 63.8241 45.6337 63.9136 45.4547C63.9136 45.4547 63.9136 45.4547 63.9136 45.3652C64.0031 45.1863 64.0031 45.0073 64.0925 44.8284C64.182 44.6494 64.182 44.4704 64.2715 44.2915V44.202C64.2715 44.0231 64.361 43.8441 64.361 43.6651C64.361 43.6651 64.361 43.6651 64.361 43.5757L61.7661 42.144C61.7661 42.144 61.7661 42.0545 61.7661 42.144Z" fill="#E2AE39"/>
<path d="M61.1398 44.6494C61.1398 44.8284 61.0503 44.9178 61.0503 45.0968C61.0503 45.0968 61.0503 45.0968 61.0503 45.1863C61.0503 45.2758 60.9608 45.4547 60.9608 45.5442V45.6337C60.9608 45.7231 60.8713 45.9021 60.8713 45.9916C60.8713 45.9916 60.8713 45.9916 60.8713 46.0811C60.7819 46.26 60.7819 46.3495 60.6924 46.5284L63.2872 48.0496C63.3767 47.8706 63.3767 47.7811 63.4662 47.6022C63.4662 47.6022 63.4662 47.6022 63.4662 47.5127C63.4662 47.4232 63.5557 47.2443 63.5557 47.1548V47.0653C63.5557 46.9758 63.6452 46.7969 63.6452 46.7074C63.6452 46.7074 63.6452 46.7074 63.6452 46.6179C63.6452 46.439 63.7346 46.3495 63.7346 46.1705C63.7346 46.1705 63.7346 46.1705 63.7346 46.0811L61.1398 44.6494Z" fill="#E2AE39"/>
<path d="M60.5134 46.6179C60.424 46.8864 60.3345 47.1548 60.245 47.4232C60.1555 47.6917 60.066 47.9601 59.9766 48.2285L62.5714 49.7496C62.6609 49.4812 62.7504 49.2128 62.8399 48.9443C62.9293 48.6759 63.0188 48.4075 63.1083 48.139L60.5134 46.6179Z" fill="#EDCD84"/>
<path d="M59.8871 48.4075C59.7976 48.6759 59.7081 48.9443 59.6187 49.1233C59.6187 49.1233 59.6187 49.1233 59.6187 49.2128C59.5292 49.4812 59.4397 49.7496 59.2607 50.0181L61.8556 51.5392C61.9451 51.2708 62.124 51.0023 62.2135 50.7339C62.2135 50.7339 62.2135 50.7339 62.2135 50.6444C62.303 50.376 62.3925 50.1075 62.4819 49.9286L59.8871 48.4075Z" fill="#EDCD84"/>
<path d="M59.1713 50.0181C59.0818 50.2865 58.9028 50.5549 58.8134 50.8234V50.9128C58.7239 51.1813 58.5449 51.3602 58.4554 51.6287L61.0503 53.1498C61.1398 52.8814 61.3187 52.6129 61.4082 52.434V52.3445C61.4977 52.0761 61.6766 51.8076 61.7661 51.5392L59.1713 50.0181Z" fill="#EDCD84"/>
<path d="M58.4554 51.7183C58.4554 51.8077 58.366 51.8972 58.366 51.9867C58.366 52.0762 58.366 52.0762 58.2765 52.1657C58.187 52.2551 58.187 52.3446 58.0975 52.5236V52.613C58.0081 52.7025 58.0081 52.8815 57.9186 52.971C57.9186 52.971 57.9186 53.0604 57.8291 53.0604C57.7396 53.1499 57.7396 53.2394 57.6501 53.3289L60.245 54.85C60.3345 54.7605 60.3345 54.671 60.424 54.5816C60.424 54.5816 60.424 54.4921 60.5134 54.4921C60.6029 54.4026 60.6924 54.2236 60.6924 54.1342V54.0447C60.7819 53.9552 60.7819 53.8657 60.8713 53.6868C60.8713 53.5973 60.9608 53.5973 60.9608 53.5078C60.9608 53.4183 61.0503 53.3289 61.0503 53.2394C61.0503 53.2394 61.0503 53.2394 61.0503 53.1499L58.4554 51.7183Z" fill="#EDCD84"/>
<path d="M57.5607 53.4183C57.4712 53.5078 57.4712 53.5973 57.3817 53.6868C57.3817 53.7762 57.2922 53.7762 57.2922 53.8657C57.2028 53.9552 57.2028 54.0447 57.1133 54.1342C57.1133 54.2236 57.0238 54.2236 57.0238 54.3131C56.9343 54.4026 56.8448 54.5815 56.8448 54.671C56.7554 54.85 56.6659 54.9395 56.5764 55.1184L59.1713 56.6395C59.2607 56.4606 59.3502 56.3711 59.4397 56.1921C59.5292 56.1027 59.6187 55.9237 59.6187 55.8342C59.6187 55.7448 59.7081 55.7448 59.7081 55.6553C59.7976 55.5658 59.7976 55.4763 59.8871 55.3868C59.8871 55.2974 59.9766 55.2974 59.9766 55.2079C60.066 55.1184 60.066 55.0289 60.1555 54.9395C60.1555 54.9395 60.1555 54.85 60.245 54.85L57.6501 53.3289C57.5607 53.4183 57.5607 53.4183 57.5607 53.4183Z" fill="#EDCD84"/>
<path d="M56.5764 55.2078C56.4869 55.2972 56.3975 55.4762 56.3975 55.5657C56.3975 55.6552 56.308 55.6552 56.308 55.7446C56.2185 55.8341 56.129 56.0131 56.0396 56.1025C56.0396 56.1025 56.0396 56.192 55.9501 56.192C55.8606 56.371 55.7711 56.4605 55.6816 56.6394L55.5922 56.7289C55.5027 56.8184 55.4132 56.9973 55.4132 57.0868C55.4132 57.0868 55.4132 57.1763 55.3237 57.1763L57.9186 58.6974C57.9186 58.6974 57.9186 58.6079 58.0081 58.6079C58.0975 58.5184 58.187 58.3395 58.187 58.25L58.2765 58.1605C58.366 57.9816 58.4555 57.8921 58.5449 57.7131C58.5449 57.7131 58.5449 57.6237 58.6344 57.6237C58.7239 57.5342 58.8134 57.3552 58.9028 57.2658C58.9028 57.1763 58.9923 57.1763 58.9923 57.0868C59.0818 56.9973 59.1713 56.8184 59.1713 56.7289C59.1713 56.7289 59.1713 56.6394 59.2608 56.6394L56.5764 55.2078Z" fill="#FFDC48"/>
<path d="M55.3237 57.2658C55.2343 57.4448 55.0553 57.6238 54.9658 57.8027C54.9658 57.8027 54.9658 57.8922 54.8763 57.8922C54.7869 58.0711 54.6974 58.2501 54.5184 58.3396L54.429 58.4291C54.3395 58.608 54.1605 58.787 54.071 58.9659L53.9816 59.0554C53.8921 59.2344 53.8026 59.4133 53.6237 59.5028C53.6237 59.5028 53.6237 59.5028 53.6237 59.5923L56.2185 61.1134C56.2185 61.1134 56.2185 61.1134 56.2185 61.0239C56.308 60.845 56.4869 60.666 56.5764 60.5765L56.6659 60.487C56.7554 60.3081 56.9343 60.1291 57.0238 59.9502L57.1133 59.8607C57.2028 59.6817 57.2922 59.5028 57.4712 59.4133C57.4712 59.4133 57.4712 59.3238 57.5607 59.3238C57.6502 59.1449 57.8291 58.9659 57.9186 58.787C57.9186 58.787 57.9186 58.787 57.9186 58.6975L55.3237 57.2658C55.3237 57.2658 55.3237 57.1764 55.3237 57.2658Z" fill="#FFDC48"/>
<path d="M53.7131 59.6819C53.5342 59.9503 53.3552 60.1292 53.1763 60.3977C53.1763 60.3977 53.1763 60.4872 53.0868 60.4872C52.9078 60.7556 52.7289 60.9345 52.5499 61.203C52.5499 61.203 52.5499 61.2925 52.4605 61.2925C52.2815 61.5609 52.1025 61.7398 51.9236 62.0083L51.8341 62.0978C51.6552 62.3662 51.4762 62.5451 51.2972 62.8136C51.2972 62.8136 51.2972 62.8136 51.2972 62.9031L53.8921 64.4242C53.8921 64.4242 53.8921 64.4242 53.8921 64.3347C54.0711 64.0663 54.25 63.8873 54.429 63.6189L54.5184 63.5294C54.6974 63.261 54.8764 63.082 55.0553 62.8136C55.0553 62.8136 55.0553 62.7241 55.1448 62.7241C55.3237 62.4557 55.5027 62.2767 55.6817 62.0083C55.6817 62.0083 55.6817 61.9188 55.7711 61.9188C55.9501 61.6504 56.129 61.4714 56.308 61.203L53.7131 59.6819C53.7131 59.5924 53.7131 59.5924 53.7131 59.6819Z" fill="#FFDC48"/>
<path d="M51.2973 62.8135C51.2078 62.9924 51.0288 63.1714 50.8499 63.3503C50.7604 63.5293 50.5814 63.7083 50.492 63.8872C50.492 63.9767 50.4025 63.9767 50.4025 64.0662C50.313 64.2451 50.2235 64.3346 50.0446 64.5136L49.9551 64.603C49.7761 64.782 49.6867 64.9609 49.5077 65.1399L49.4182 65.2294C49.3287 65.4083 49.1498 65.4978 49.0603 65.6768C49.0603 65.7662 48.9708 65.7662 48.9708 65.8557C48.7919 66.0347 48.7024 66.2136 48.5234 66.3031C48.5234 66.3031 48.5234 66.3031 48.434 66.3926C48.255 66.5715 48.1655 66.7505 47.9866 66.9295C47.9866 67.0189 47.8971 67.0189 47.8971 67.1084C47.8076 67.2874 47.6287 67.3768 47.5392 67.5558L47.4497 67.6453L50.0446 69.1664L50.134 69.0769C50.2235 68.898 50.4025 68.8085 50.492 68.6295C50.492 68.5401 50.5814 68.5401 50.5814 68.4506C50.7604 68.2716 50.8499 68.0927 51.0288 67.9137C51.0288 67.9137 51.0288 67.9137 51.1183 67.8242C51.2973 67.6453 51.3867 67.4663 51.5657 67.3768C51.5657 67.2874 51.6552 67.2874 51.6552 67.1979C51.7446 67.0189 51.9236 66.9295 52.0131 66.7505L52.1026 66.661C52.2815 66.4821 52.371 66.3031 52.5499 66.1242L52.6394 66.0347C52.7289 65.8557 52.9079 65.7662 52.9973 65.5873C52.9973 65.4978 53.0868 65.4978 53.0868 65.4083C53.1763 65.2294 53.3552 65.0504 53.4447 64.9609C53.6237 64.782 53.7132 64.603 53.8921 64.4241C53.8921 64.4241 53.8921 64.4241 53.8921 64.3346L51.2973 62.8135C51.3867 62.8135 51.3867 62.8135 51.2973 62.8135Z" fill="#FFDC48"/>
<path d="M48.8814 70.4192C48.9708 70.3297 49.0603 70.2402 49.1498 70.0613C49.2393 69.9718 49.2393 69.9718 49.3287 69.8823C49.4182 69.7929 49.5077 69.7034 49.5972 69.6139C49.6867 69.5244 49.6867 69.5244 49.7761 69.4349C49.8656 69.3455 49.9551 69.256 50.0446 69.1665C50.0446 69.1665 50.0446 69.1665 50.134 69.077L47.5392 67.5559C47.5392 67.5559 47.5392 67.5559 47.4497 67.6454C47.3602 67.7349 47.2708 67.8243 47.1813 67.9138C47.0918 68.0033 47.0918 68.0033 47.0023 68.0928C46.9128 68.1823 46.8234 68.2717 46.7339 68.3612C46.6444 68.4507 46.6444 68.4507 46.5549 68.5402C46.4655 68.6296 46.376 68.7191 46.2865 68.8981C46.197 68.9876 46.197 68.9876 46.1075 69.077C45.9286 69.256 45.8391 69.4349 45.6602 69.5244L48.255 71.0455C48.434 70.8666 48.5234 70.6876 48.7024 70.5982C48.7919 70.5087 48.7919 70.4192 48.8814 70.4192Z" fill="#FFDC48"/>
<path d="M47.8971 67.0189C47.8971 66.9294 47.9866 66.9295 47.9866 66.84C48.1655 66.661 48.255 66.4821 48.434 66.3031C48.434 66.3031 48.434 66.3031 48.5234 66.2136C48.7024 66.0347 48.7919 65.8557 48.9708 65.7662C48.9708 65.6768 49.0603 65.6768 49.0603 65.5873C49.1498 65.4083 49.3287 65.3188 49.4182 65.1399L49.5077 65.0504C49.6867 64.8715 49.7761 64.6925 49.9551 64.5135L50.0446 64.4241C50.134 64.2451 50.313 64.1556 50.4025 63.9767C50.4025 63.8872 50.492 63.8872 50.492 63.7977C50.5814 63.6188 50.7604 63.4398 50.8499 63.2609C51.0288 63.0819 51.1183 62.903 51.2973 62.724L51.3867 62.6345C51.5657 62.3661 51.7446 62.1871 51.9236 61.9187L52.0131 61.8292C52.192 61.5608 52.371 61.3818 52.5499 61.1134C52.5499 61.1134 52.5499 61.0239 52.6394 61.0239C52.8184 60.7555 52.9973 60.5765 53.1763 60.3081C53.1763 60.3081 53.1763 60.2186 53.2658 60.2186C53.4447 59.9502 53.6237 59.7712 53.8026 59.5028C53.8026 59.5028 53.8026 59.4133 53.8921 59.4133C53.9816 59.2344 54.1605 59.0554 54.25 58.9659L54.3395 58.8764C54.429 58.6975 54.6079 58.5185 54.6974 58.3396L54.7869 58.2501C54.8764 58.0711 54.9658 57.8922 55.1448 57.8027C55.1448 57.8027 55.1448 57.7132 55.2343 57.7132C55.3238 57.5343 55.5027 57.3553 55.5922 57.1764L55.6817 57.0869C55.7711 56.9974 55.8606 56.8185 55.8606 56.729L55.9501 56.6395C56.0396 56.4605 56.1291 56.3711 56.2185 56.1921C56.2185 56.1921 56.2185 56.1026 56.308 56.1026C56.3975 56.0132 56.487 55.8342 56.5764 55.7447C56.5764 55.6552 56.6659 55.6553 56.6659 55.5658C56.7554 55.4763 56.8449 55.2973 56.8449 55.2079C56.8449 55.2079 56.8449 55.1184 56.9344 55.1184C57.0238 54.9394 57.1133 54.8499 57.2028 54.671C57.2923 54.5815 57.3818 54.4026 57.3818 54.3131C57.3818 54.2236 57.4712 54.2236 57.4712 54.1341C57.5607 54.0447 57.5607 53.9552 57.6502 53.8657C57.6502 53.7762 57.7397 53.7762 57.7397 53.6867C57.8291 53.5973 57.8291 53.5078 57.9186 53.4183C57.9186 53.3288 58.0081 53.3288 58.0081 53.2393C58.0976 53.1499 58.0976 53.0604 58.187 52.9709C58.187 52.9709 58.1871 52.8814 58.2765 52.8814C58.366 52.792 58.4555 52.613 58.4555 52.5235V52.434C58.545 52.3446 58.545 52.2551 58.6344 52.0761C58.6344 51.9867 58.6344 51.9867 58.7239 51.8972C58.7239 51.8077 58.8134 51.7182 58.8134 51.6287C58.8134 51.6287 58.8134 51.5393 58.9029 51.5393C58.9924 51.2708 59.1713 51.0024 59.2608 50.8234V50.734C59.3503 50.4655 59.5292 50.1971 59.6187 49.9287C59.7082 49.6602 59.8871 49.3918 59.9766 49.1234C59.9766 49.1234 59.9766 49.1234 59.9766 49.0339C60.0661 48.7655 60.1556 48.497 60.245 48.3181C60.245 48.3181 60.245 48.3181 60.245 48.2286C60.3345 47.9602 60.424 47.6917 60.5135 47.4233C60.603 47.1549 60.6924 46.8864 60.7819 46.618V46.5285C60.8714 46.3496 60.8714 46.2601 60.9609 46.0811C60.9609 46.0811 60.9609 46.0811 60.9609 45.9916C60.9609 45.9022 61.0503 45.7232 61.0503 45.6337V45.5443C61.0503 45.4548 61.1398 45.2758 61.1398 45.1863C61.1398 45.1863 61.1398 45.1863 61.1398 45.0969C61.1398 44.9179 61.2293 44.8284 61.2293 44.6495V44.56C61.3188 44.381 61.3188 44.2021 61.4083 44.0231C61.4083 44.0231 61.4083 44.0231 61.4083 43.9337C61.4977 43.7547 61.4977 43.5757 61.5872 43.3968C61.6767 43.2178 61.6767 43.0389 61.7662 42.8599V42.7704C61.7662 42.5915 61.8556 42.4125 61.8556 42.2336V42.1441C61.9451 41.8757 61.9451 41.5178 62.0346 41.2493C62.0346 41.2493 62.0346 41.2493 62.0346 41.1598C62.1241 40.8914 62.1241 40.5335 62.2136 40.2651C62.303 39.9072 62.303 39.6387 62.3925 39.2808C62.3925 39.2808 62.3925 39.2808 62.3925 39.1913C62.482 38.9229 62.482 38.565 62.482 38.2966V38.2071C62.482 38.0281 62.482 37.9386 62.5715 37.7597C62.5715 37.7597 62.5715 37.7597 62.5715 37.6702C62.5715 37.4913 62.5715 37.4018 62.6609 37.2228V37.1333C62.6609 37.0439 62.6609 36.8649 62.6609 36.7754V36.686C62.6609 36.507 62.6609 36.4175 62.7504 36.2386V36.1491C62.7504 36.0596 62.7504 35.8807 62.7504 35.7912V35.7017C62.7504 35.5227 62.7504 35.3438 62.7504 35.2543C62.7504 35.0754 62.7504 34.9859 62.7504 34.8069C62.7504 34.7174 62.7504 34.7174 62.7504 34.628C62.7504 34.5385 62.7504 34.3595 62.7504 34.2701V34.1806C62.7504 34.0016 62.7504 33.8227 62.7504 33.7332V33.6437C62.7504 33.5542 62.7504 33.3753 62.7504 33.2858V33.1963C62.7504 33.0174 62.7504 32.8384 62.7504 32.7489V32.6595C62.7504 32.4805 62.7504 32.391 62.7504 32.2121C62.7504 32.1226 62.7504 32.1226 62.7504 32.0331C62.7504 31.8542 62.7504 31.6752 62.7504 31.5857C62.7504 31.4068 62.7504 31.2278 62.7504 31.0489C62.7504 30.9594 62.7504 30.9594 62.7504 30.8699C62.7504 30.6909 62.7504 30.6015 62.7504 30.4225V30.333C62.7504 30.1541 62.7504 29.9751 62.7504 29.7962V29.7067C62.7504 29.5277 62.7504 29.4383 62.7504 29.2593V29.1698C62.7504 28.9909 62.7504 28.8119 62.7504 28.633C62.7504 28.633 62.7504 28.633 62.7504 28.5435C62.7504 28.3645 62.7504 28.275 62.7504 28.0961C62.7504 28.0066 62.7504 28.0066 62.7504 27.9171C62.7504 27.7382 62.7504 27.5592 62.7504 27.4697C62.7504 27.4697 62.7504 27.4697 62.7504 27.3803C62.7504 27.2013 62.7504 27.0224 62.7504 26.8434C62.7504 26.7539 62.7504 26.7539 62.7504 26.6644C62.7504 26.4855 62.7504 26.396 62.7504 26.2171V26.1276C62.7504 25.9486 62.7504 25.7697 62.7504 25.5907V25.5012C62.7504 25.3223 62.7504 25.2328 62.7504 25.0538C62.7504 24.9644 62.7504 24.9644 62.7504 24.8749C62.7504 24.6959 62.7504 24.517 62.7504 24.338C62.7504 24.338 62.7504 24.338 62.7504 24.2485C62.7504 24.0696 62.7504 23.8906 62.7504 23.7117C62.7504 23.6222 62.7504 23.6222 62.7504 23.5327C62.7504 23.3538 62.7504 23.1748 62.7504 23.0853V22.9959C62.7504 22.8169 62.7504 22.6379 62.7504 22.3695C62.7504 22.28 62.7504 22.28 62.7504 22.1906C62.7504 22.0116 62.7504 21.8326 62.7504 21.6537C62.7504 21.6537 62.7504 21.6537 62.7504 21.5642C62.7504 21.4747 62.7504 21.2958 62.7504 21.2063C62.6609 21.2063 62.6609 21.2063 62.5715 21.2063H62.482C62.3925 21.2063 62.3925 21.2063 62.303 21.2063C62.303 21.2063 62.303 21.2063 62.2136 21.2063C62.1241 21.2063 62.0346 21.2063 61.9451 21.2063C61.9451 21.2063 61.9451 21.2063 61.8556 21.2063C61.7662 21.2063 61.7662 21.2063 61.6767 21.2063H61.5872C61.4977 21.2063 61.4083 21.2063 61.4083 21.2063C61.3188 21.2063 61.2293 21.2063 61.1398 21.2063H61.0503C60.9609 21.2063 60.9609 21.2063 60.8714 21.2063H60.7819C60.6924 21.2063 60.603 21.2063 60.5135 21.2063C60.424 21.2063 60.3345 21.2063 60.245 21.2063H60.1556C60.0661 21.2063 59.9766 21.2063 59.9766 21.2063H59.8871C59.7977 21.2063 59.7082 21.2063 59.6187 21.2063C59.5292 21.2063 59.4397 21.2063 59.3503 21.2063H59.2608C59.1713 21.2063 59.0818 21.2063 59.0818 21.2063H58.9924C58.9029 21.2063 58.8134 21.2063 58.7239 21.2063C58.7239 21.2063 58.7239 21.2063 58.6344 21.2063C58.545 21.2063 58.4555 21.2063 58.366 21.2063H58.2765H58.187C58.187 21.2063 58.1871 21.2063 58.0976 21.2063C57.9186 21.2063 57.7397 21.2958 57.5607 21.2958C57.3818 21.2958 57.2028 21.3853 57.0238 21.3853H56.9344C56.7554 21.3853 56.5764 21.4747 56.3975 21.4747H56.308C56.1291 21.4747 55.9501 21.5642 55.7712 21.5642H55.6817C55.5027 21.5642 55.3238 21.6537 55.1448 21.6537C54.9658 21.6537 54.7869 21.7432 54.6079 21.7432H54.5185C54.3395 21.7432 54.1606 21.8326 53.9816 21.8326H53.8921C53.7132 21.9221 53.5342 21.9221 53.3552 22.0116H53.2658C53.1763 22.0116 53.0868 22.1011 52.9079 22.1011C52.8184 22.1011 52.8184 22.1011 52.7289 22.1011C52.6394 22.1011 52.5499 22.1906 52.4605 22.1906C52.371 22.1906 52.371 22.1906 52.2815 22.1906C52.192 22.1906 52.1026 22.28 52.0131 22.28H51.9236C51.8341 22.28 51.6552 22.3695 51.5657 22.3695C51.5657 22.3695 51.5657 22.3695 51.4762 22.3695C51.3867 22.3695 51.2973 22.459 51.1183 22.459C51.1183 22.459 51.0288 22.459 51.0288 22.5485C50.9393 22.5485 50.8499 22.6379 50.7604 22.6379C50.6709 22.6379 50.6709 22.6379 50.5814 22.7274C50.492 22.7274 50.4025 22.8169 50.313 22.8169C50.313 22.8169 50.2235 22.8169 50.2235 22.9064C50.134 22.9959 49.9551 22.9959 49.8656 23.0853C49.6867 23.1748 49.5077 23.2643 49.3287 23.3538H49.2393C49.0603 23.4432 48.8814 23.5327 48.7919 23.6222H48.7024C48.5234 23.7117 48.3445 23.8012 48.255 23.8906H48.1655C47.9866 23.9801 47.8076 24.0696 47.7181 24.1591C47.6287 24.2485 47.5392 24.2485 47.4497 24.338C47.4497 24.338 47.3602 24.338 47.3602 24.4275C47.2708 24.4275 47.2708 24.517 47.1813 24.517L47.0918 24.6065C47.0023 24.6065 47.0023 24.6959 46.9128 24.6959L46.8234 24.7854C46.7339 24.7854 46.7339 24.8749 46.6444 24.8749L46.5549 24.9644C46.4655 24.9644 46.4655 25.0538 46.376 25.0538L46.2865 25.1433C46.197 25.1433 46.197 25.2328 46.1075 25.2328L46.0181 25.3223C46.197 26.2171 46.1075 26.2171 46.0181 26.3065L45.9286 26.396C45.8391 26.4855 45.7496 26.575 45.6602 26.575C45.6602 26.575 45.6602 26.575 45.5707 26.575L45.6602 69.4348C45.8391 69.2559 45.9286 69.0769 46.1075 68.9874C46.197 68.898 46.197 68.898 46.2865 68.8085C46.376 68.719 46.4655 68.6295 46.5549 68.4506C46.6444 68.3611 46.6444 68.3611 46.7339 68.2716C46.8234 68.1821 46.9128 68.0927 47.0023 68.0032C47.0918 67.9137 47.0918 67.9137 47.1813 67.8242C47.2708 67.7347 47.3602 67.6453 47.4497 67.5558C47.5392 67.4663 47.5392 67.4663 47.6287 67.3768C47.6287 67.2874 47.8076 67.1979 47.8971 67.0189Z" fill="#4D4D84"/>
<path d="M45.4812 69.5244L48.0761 71.0455C48.1655 71.0455 48.255 71.0455 48.255 71.0455L45.6602 69.5244C45.6602 69.5244 45.5707 69.5244 45.4812 69.5244Z" fill="#FFDC48"/>
<path d="M45.3917 69.5244C45.3023 69.5244 45.3023 69.5244 45.2128 69.5244C45.1233 69.5244 45.1233 69.5244 45.0338 69.5244C44.9443 69.5244 44.9443 69.5244 44.8549 69.5244H44.7654C44.6759 69.5244 44.6759 69.5244 44.5864 69.5244C44.497 69.5244 44.497 69.5244 44.4075 69.5244H44.318C44.2285 69.5244 44.2285 69.5244 44.139 69.5244C44.0496 69.5244 44.0496 69.5244 43.9601 69.5244H43.8706C43.7811 69.5244 43.7811 69.5244 43.6917 69.5244C43.6022 69.5244 43.5127 69.5244 43.5127 69.5244H43.4232H43.3337C43.2443 69.5244 43.1548 69.5244 43.0653 69.5244H42.9758C42.9758 69.5244 42.9758 69.5244 42.8864 69.5244C42.7969 69.5244 42.7074 69.5244 42.6179 69.5244H42.5284C42.439 69.5244 42.3495 69.5244 42.26 69.5244H42.1705H42.0811C41.9916 69.5244 41.9021 69.5244 41.8126 69.5244H41.7231C41.7231 69.5244 41.7231 69.5244 41.6337 69.5244L44.2285 71.0455C44.2285 71.0455 44.2285 71.0455 44.318 71.0455C44.4075 71.0455 44.497 71.0455 44.5864 71.0455C44.6759 71.0455 44.6759 71.0455 44.7654 71.0455C44.8549 71.0455 44.9443 71.0455 45.0338 71.0455H45.1233C45.3023 71.0455 45.3917 71.0455 45.5707 71.0455H45.6602C45.7496 71.0455 45.9286 71.0455 46.0181 71.0455C46.1076 71.0455 46.1076 71.0455 46.197 71.0455C46.2865 71.0455 46.376 71.0455 46.4655 71.0455C46.5549 71.0455 46.5549 71.0455 46.6444 71.0455C46.7339 71.0455 46.8234 71.0455 46.9129 71.0455C47.0023 71.0455 47.0023 71.0455 47.0918 71.0455C47.1813 71.0455 47.2708 71.0455 47.3602 71.0455C47.4497 71.0455 47.5392 71.0455 47.5392 71.0455C47.6287 71.0455 47.7182 71.0455 47.8076 71.0455H47.8971L45.3917 69.5244C45.4812 69.5244 45.3917 69.5244 45.3917 69.5244Z" fill="#FFDC48"/>
<path d="M41.6337 69.5244C41.5442 69.5244 41.4547 69.5244 41.4547 69.5244C41.3652 69.5244 41.3652 69.5244 41.2758 69.5244C41.1863 69.5244 41.0968 69.5244 41.0073 69.5244H40.9179C40.8284 69.5244 40.7389 69.5244 40.7389 69.5244C40.6494 69.5244 40.6494 69.5244 40.5599 69.5244C40.4705 69.5244 40.4705 69.5244 40.381 69.5244C40.381 69.5244 40.381 69.5244 40.2915 69.5244C40.202 69.5244 40.202 69.5244 40.1126 69.5244C40.0231 69.5244 39.9336 69.5244 39.9336 69.5244C39.8441 69.5244 39.8441 69.5244 39.7546 69.5244H39.6652C39.6652 69.5244 39.6652 69.5244 39.5757 69.5244H39.4862H39.3967C39.3072 69.5244 39.2178 69.5244 39.1283 69.5244H39.0388L41.6337 71.0455C41.8126 71.0455 41.9916 71.135 42.1705 71.135H42.26C42.439 71.135 42.6179 71.2245 42.7969 71.2245H42.8864C43.0653 71.2245 43.2443 71.2245 43.5127 71.314C43.6917 71.314 43.9601 71.314 44.1391 71.4034C44.1391 71.4034 44.1391 71.4034 44.2285 71.4034L41.6337 69.5244Z" fill="#FFDC48"/>
<path d="M39.1283 69.256C39.0388 69.256 38.9493 69.256 38.8599 69.1665C38.8599 69.1665 38.8599 69.1665 38.7704 69.1665H38.6809H38.5914H38.502H38.4125C38.323 69.1665 38.2335 69.1665 38.2335 69.1665H38.144C38.0546 69.1665 38.0546 69.1665 37.9651 69.1665H37.8756H37.7861H37.6967H37.6072C37.5177 69.1665 37.5177 69.1665 37.4282 69.1665L40.0231 70.6876C40.0231 70.6876 40.0231 70.6876 40.1126 70.6876C40.202 70.6876 40.2915 70.7771 40.4705 70.7771H40.5599C40.6494 70.7771 40.8284 70.8666 41.0073 70.8666C41.1863 70.8666 41.2758 70.9561 41.4547 70.9561H41.5442C41.6337 70.9561 41.8126 71.0455 41.9021 71.0455C41.9021 71.0455 41.9021 71.0455 41.9916 71.0455L39.1283 69.256Z" fill="#FFDC48"/>
<path d="M37.2493 68.8086C37.0703 68.8086 37.0703 68.7191 36.9808 68.7191H36.8914C36.8019 68.7191 36.8019 68.7191 36.7124 68.6296H36.6229C36.6229 68.6296 36.6229 68.6296 36.5335 68.6296H36.444H36.3545H36.265H36.1755H36.0861H35.9966H35.9071L38.4125 70.0613H38.502C38.5914 70.0613 38.6809 70.1508 38.7704 70.1508H38.8599C38.9494 70.1508 39.0388 70.2402 39.0388 70.2402H39.1283C39.2178 70.2402 39.3073 70.3297 39.3967 70.3297C39.3967 70.3297 39.3967 70.3297 39.4862 70.3297C39.5757 70.3297 39.7546 70.4192 39.8441 70.4192L37.2493 68.8086Z" fill="#FFDC48"/>
<path d="M37.0703 69.1664L37.1598 69.2559C37.1598 69.2559 37.2493 69.2559 37.2493 69.3453C37.3388 69.3453 37.3388 69.4348 37.4282 69.4348C37.4282 69.4348 37.5177 69.4348 37.5177 69.5243C37.6072 69.5243 37.6072 69.6138 37.6967 69.6138H37.7861C37.8756 69.7033 37.9651 69.7033 38.0546 69.7033C38.1441 69.7033 38.2335 69.7927 38.323 69.7927L35.8176 68.3611C36.265 68.6295 36.6229 68.898 37.0703 69.1664Z" fill="#FFDC48"/>
<path d="M45.5707 26.6646C45.4812 26.754 45.3917 26.8435 45.3022 26.8435L45.2128 26.933C45.1233 27.0225 45.0338 27.0225 45.0338 27.1119L44.9443 27.2014C44.8549 27.2909 44.8549 27.2909 44.7654 27.3804L44.6759 27.4699C44.5864 27.5593 44.5864 27.5593 44.4969 27.6488C44.4075 27.6488 44.4075 27.7383 44.318 27.7383C44.2285 27.8278 44.2285 27.8278 44.139 27.9172C44.0496 27.9172 44.0496 28.0067 43.9601 28.0067C43.8706 28.0962 43.7811 28.0962 43.7811 28.1857L43.6917 28.2752C43.6022 28.3646 43.5127 28.3646 43.5127 28.4541L43.4232 28.5436C43.3337 28.6331 43.2443 28.7225 43.1548 28.812C43.0653 28.9015 42.8864 28.991 42.7969 29.0805L42.7074 29.1699C42.6179 29.2594 42.5284 29.3489 42.439 29.3489L42.3495 29.4384C42.26 29.5278 42.1705 29.5278 42.1705 29.6173C42.081 29.6173 42.081 29.7068 41.9916 29.7068C41.9021 29.7963 41.9021 29.7963 41.8126 29.8858C41.7231 29.8858 41.7231 29.9752 41.6337 29.9752C41.5442 30.0647 41.5442 30.0647 41.4547 30.1542C41.3652 30.1542 41.3652 30.2437 41.2758 30.2437C41.1863 30.3331 41.0968 30.3331 41.0968 30.4226L41.0073 30.5121C40.9178 30.6016 40.8284 30.6911 40.8284 30.6911L40.7389 30.7805C40.6494 30.87 40.5599 30.9595 40.4704 31.049C40.4704 31.049 40.4705 31.049 40.381 31.1384C40.2915 31.2279 40.202 31.3174 40.0231 31.4964L39.9336 31.5858C39.8441 31.6753 39.7546 31.7648 39.6652 31.8543L39.5757 31.9437C39.4862 32.0332 39.3967 32.1227 39.3967 32.1227L39.3072 32.2122C39.2178 32.3017 39.2178 32.3017 39.1283 32.3911C39.0388 32.3911 39.0388 32.4806 38.9493 32.4806L38.8598 32.5701L38.7704 32.6596C38.6809 32.749 38.5914 32.8385 38.5914 32.8385C38.5019 32.928 38.5019 32.928 38.4125 33.0175C38.323 33.107 38.2335 33.1964 38.2335 33.1964C38.144 33.2859 38.144 33.2859 38.0545 33.3754C37.9651 33.4649 37.8756 33.5543 37.8756 33.5543C37.8756 33.6438 37.7861 33.6438 37.7861 33.7333C37.6966 33.8228 37.6072 33.9123 37.5177 34.0017L37.4282 34.0912C37.3387 34.1807 37.1598 34.3596 37.0703 34.4491L36.9808 34.5386C36.8913 34.6281 36.8019 34.7176 36.7124 34.807L36.6229 34.8965C36.5334 34.986 36.4439 35.0755 36.4439 35.0755C36.4439 35.1649 36.3545 35.1649 36.3545 35.2544C36.265 35.3439 36.265 35.4334 36.1755 35.4334C36.1755 35.5229 36.086 35.5229 36.086 35.6123C35.9966 35.7018 35.9966 35.7018 35.9071 35.7913C35.9071 35.8808 35.8176 35.8808 35.8176 35.9702C35.7281 36.0597 35.7281 36.0597 35.6387 36.1492C35.6387 36.2387 35.5492 36.2387 35.5492 36.3282C35.4597 36.4176 35.4597 36.4176 35.3702 36.5071L35.2807 36.5966C35.1913 36.6861 35.1913 36.6861 35.1018 36.7755L35.0123 36.865C34.9228 36.9545 34.8333 37.044 34.8333 37.044L34.7439 37.1335C34.6544 37.2229 34.5649 37.3124 34.4754 37.4019C34.386 37.4914 34.2965 37.5808 34.207 37.6703L34.1175 37.7598C34.0281 37.8493 34.028 37.8493 33.9386 37.9388L33.8491 38.0282C33.7596 38.1177 33.7596 38.1177 33.6701 38.2072L33.5807 38.2967C33.4912 38.3861 33.4912 38.3861 33.4017 38.4756L33.3122 38.5651C33.3122 38.6546 33.2228 38.6546 33.2228 38.7441L33.1333 38.8335C33.1333 38.923 33.0438 38.923 33.0438 39.0125L32.9543 39.102C32.9543 39.1914 32.8648 39.1914 32.8648 39.2809L32.7754 39.3704C32.7754 39.4599 32.6859 39.4599 32.6859 39.4599C32.6859 39.4599 32.6859 39.5494 32.5964 39.5494C32.5069 39.6388 32.5069 39.6388 32.4174 39.7283C32.328 39.8178 32.328 39.8178 32.2385 39.9073L32.149 39.9967C32.149 39.9967 32.149 39.9967 32.0595 40.0862L31.9701 40.1757C31.9701 40.1757 31.9701 40.1757 31.8806 40.2652C31.8806 40.2652 31.8806 40.3547 31.7911 40.3547C31.7911 40.3547 31.7911 40.3547 31.7016 40.4441C31.7016 40.4441 31.7016 40.5336 31.6121 40.5336C31.6121 40.5336 31.6121 40.5336 31.5227 40.6231C31.5227 40.6231 31.5227 40.6231 31.4332 40.7126C31.4332 40.7126 31.4332 40.802 31.3437 40.802C31.3437 54.4921 31.1648 63.7084 36.5334 67.9138H36.6229H36.7124H36.8019H36.8913H36.9808H37.0703H37.1598C37.1598 67.9138 37.1598 67.9138 37.2492 67.9138H37.3387C37.4282 67.9138 37.4282 67.9138 37.5177 68.0033H37.6072C37.6966 68.0033 37.6966 68.0033 37.7861 68.0928C37.8756 68.0928 37.8756 68.0928 37.9651 68.0928C38.0545 68.0928 38.0546 68.0928 38.144 68.0928H38.2335H38.323C38.323 68.0928 38.323 68.0928 38.4125 68.0928C38.5019 68.0928 38.5019 68.0928 38.5914 68.0928C38.6809 68.0928 38.6809 68.0928 38.7704 68.0928H38.8598C38.9493 68.0928 39.0388 68.0928 39.0388 68.0928H39.1283H39.2178H39.3072H39.3967C39.3967 68.0928 39.3967 68.0928 39.4862 68.0928C39.5757 68.0928 39.6651 68.0928 39.7546 68.1823H39.8441C39.9336 68.1823 40.0231 68.1823 40.1125 68.1823H40.202H40.2915C40.2915 68.1823 40.2915 68.1823 40.381 68.1823H40.4704C40.5599 68.1823 40.5599 68.1823 40.6494 68.1823C40.7389 68.1823 40.8284 68.1823 40.8284 68.1823C40.9178 68.1823 40.9178 68.1823 41.0073 68.1823C41.0968 68.1823 41.0968 68.1823 41.1863 68.1823C41.2757 68.1823 41.2757 68.1823 41.3652 68.1823C41.4547 68.1823 41.5442 68.1823 41.5442 68.1823C41.6337 68.1823 41.6337 68.1823 41.7231 68.1823C41.8126 68.1823 41.9021 68.1823 41.9916 68.1823C42.081 68.1823 42.081 68.1823 42.1705 68.1823C42.26 68.1823 42.3495 68.1823 42.3495 68.1823C42.439 68.1823 42.439 68.1823 42.5284 68.1823C42.6179 68.1823 42.7074 68.1823 42.7969 68.1823H42.8863H42.9758C43.0653 68.1823 43.1548 68.1823 43.2443 68.1823C43.3337 68.1823 43.3337 68.1823 43.4232 68.1823C43.5127 68.1823 43.6022 68.1823 43.6917 68.1823C43.7811 68.1823 43.7811 68.1823 43.8706 68.1823C43.9601 68.1823 44.0496 68.1823 44.139 68.1823C44.2285 68.1823 44.2285 68.1823 44.318 68.1823C44.4075 68.1823 44.4969 68.1823 44.4969 68.1823C44.5864 68.1823 44.6759 68.1823 44.7654 68.1823C44.8549 68.1823 44.8549 68.1823 44.9443 68.1823C45.0338 68.1823 45.0338 68.1823 45.1233 68.1823H45.2128C45.3022 68.1823 45.3022 68.1823 45.3917 68.1823C45.4812 68.1823 45.4812 68.1823 45.5707 68.1823H45.6602C45.7496 68.1823 45.7496 68.1823 45.8391 68.1823C45.9286 68.1823 45.9286 68.1823 46.0181 68.1823C46.1076 68.1823 46.1076 68.1823 46.197 68.1823C46.2865 68.1823 46.376 68.1823 46.4655 68.1823L45.5707 26.6646Z" fill="#6F6FA8"/>
<path d="M49.2393 53.418L46.1076 51.6284L44.4969 52.5232L47.7182 54.3128L49.2393 53.418Z" fill="#FFCE47"/>
<path d="M49.2393 50.1968L46.1075 48.4072V51.6284L49.2393 53.418V50.1968Z" fill="#E2AE39"/>
<path d="M54.429 40.5332L51.2972 38.7437L50.134 39.37L53.3552 41.1596L54.429 40.5332Z" fill="#FFCE47"/>
<path d="M47.6287 51.1812L44.4969 49.3021C44.4075 49.3021 44.318 49.3021 44.2285 49.2126L47.3602 51.0917C47.5392 51.0917 47.5392 51.0917 47.6287 51.1812Z" fill="#EFBB3C"/>
<path d="M49.5077 47.5126L46.376 45.6335C46.6444 45.8125 46.8234 46.0809 46.8234 46.5283C46.8234 47.1547 46.5549 47.781 46.197 48.3179L49.3287 50.1969C49.6867 49.66 49.9551 49.0337 49.9551 48.4074C49.8656 47.96 49.7761 47.6915 49.5077 47.5126Z" fill="#EFBB3C"/>
<path d="M53.3552 41.1597L50.134 39.3701L48.5234 40.3544L51.6552 42.1439L53.3552 41.1597Z" fill="#FFCE47"/>
<path d="M42.439 56.0128L39.3073 54.1338C39.3073 56.0128 40.0231 57.355 41.0968 57.9813L44.2285 59.8604C43.1548 59.234 42.439 57.8919 42.439 56.0128Z" fill="#EFBB3C"/>
<path d="M51.6552 42.1438L48.5235 40.3542L42.0811 44.0228L45.2128 45.9019L51.6552 42.1438Z" fill="#FFCE47"/>
<path d="M45.2128 45.902L42.0811 44.0229L40.381 45.0072L43.5127 46.8862L45.2128 45.902Z" fill="#FFCE47"/>
<path d="M43.5127 46.8861L40.381 45.0071L39.3073 45.6334L42.439 47.5125L43.5127 46.8861Z" fill="#FFCE47"/>
<path d="M43.5127 46.8861L42.439 47.5125V56.0129C42.439 59.7709 45.1233 61.3815 48.434 59.413C51.7447 57.534 54.429 52.8811 54.429 49.0336V40.5332L53.3553 41.1595L51.6552 42.1438L45.2128 45.9019L43.5127 46.8861ZM47.6287 51.1811C47.1813 51.0916 47.0023 50.7337 46.9129 50.1968C46.9129 49.302 47.5392 48.1388 48.3445 47.6914C49.1498 47.244 49.7761 47.602 49.7761 48.4967C49.7761 49.1231 49.5077 49.7494 49.1498 50.2863V53.5075L47.5392 54.4023L47.6287 51.1811Z" fill="#FFDC48"/>
<path d="M42.439 47.5126L39.3073 45.6335V54.2234L42.439 56.013V47.5126Z" fill="#E2AE39"/>
<path d="M51.1183 36.5067L49.3287 35.3435V40.7122L51.2078 41.7859L51.1183 36.5067Z" fill="#C1E7E8"/>
<path d="M50.2235 34.4487L48.3445 33.375C48.8813 33.7329 49.2393 34.4487 49.2393 35.433L51.1183 36.5067C51.1183 35.433 50.7604 34.7172 50.2235 34.4487Z" fill="#CFEDED"/>
<path d="M43.0653 41.1597L41.1863 40.0859V45.3651L43.0653 46.4389V41.1597Z" fill="#C1E7E8"/>
<path d="M51.3867 32.3908L49.5972 31.3171C48.7919 30.8697 47.8076 30.8697 46.6444 31.4065L48.5234 32.4803C49.5972 31.9434 50.6709 31.9434 51.3867 32.3908Z" fill="#CFEDED"/>
<path d="M48.434 32.3909L46.5549 31.3171C46.4655 31.4066 46.376 31.4066 46.197 31.4961L48.0761 32.5698C48.255 32.5698 48.3445 32.4803 48.434 32.3909Z" fill="#DFF3F3"/>
<path d="M52.8074 32.5698L46.6901 31.4961C46.3988 31.4961 46.3988 31.5856 46.1075 31.5856L52.2248 32.6593C52.2248 32.6593 52.5161 32.6593 52.8074 32.5698Z" fill="#CFEDED"/>
<path d="M63.0338 32.6592L57.2078 31.5854C48.4688 33.1066 41.1863 36.9541 41.1863 39.9964L47.3036 41.0701C47.3036 38.0278 54.2948 34.2698 63.0338 32.6592Z" fill="#CFEDED"/>
<path d="M47.8971 32.6593C45.2128 34.1804 42.9758 38.0279 42.9758 41.0702V46.4389L44.6759 45.4546V40.0859C44.6759 38.0279 46.1076 35.5226 47.8971 34.5383C49.6867 33.5541 51.1183 34.3594 51.1183 36.4173V41.786L52.8184 40.8018V35.4331C52.8184 32.3908 50.6709 31.1382 47.8971 32.6593Z" fill="#F4FBFB"/>
</g>
<defs>
<clipPath id="clip0_1_4153">
<rect width="90" height="90" fill="white" transform="translate(0 0.544189)"/>
</clipPath>
</defs>
</svg>
