<svg width="91" height="90" viewBox="0 0 91 90" fill="none" xmlns="http://www.w3.org/2000/svg">
<path d="M45.4664 89.9327C70.3006 89.9327 90.4327 69.8006 90.4327 44.9664C90.4327 20.1321 70.3006 0 45.4664 0C20.6321 0 0.5 20.1321 0.5 44.9664C0.5 69.8006 20.6321 89.9327 45.4664 89.9327Z" fill="#69D5DD"/>
<path d="M45.4664 89.9327C70.3006 89.9327 90.4327 69.8006 90.4327 44.9664C90.4327 20.1321 70.3006 0 45.4664 0C20.6321 0 0.5 20.1321 0.5 44.9664C0.5 69.8006 20.6321 89.9327 45.4664 89.9327Z" fill="white" fill-opacity="0.7"/>
<path d="M6.95455 69.6445C9.19522 69.6445 11.0116 67.828 11.0116 65.5874C11.0116 63.3467 9.19522 61.5303 6.95455 61.5303C4.71388 61.5303 2.89746 63.3467 2.89746 65.5874C2.89746 67.828 4.71388 69.6445 6.95455 69.6445Z" fill="#A4E5EA"/>
<path d="M5.40403 87.6543C6.78837 87.6543 7.91059 86.532 7.91059 85.1477C7.91059 83.7633 6.78837 82.6411 5.40403 82.6411C4.01969 82.6411 2.89746 83.7633 2.89746 85.1477C2.89746 86.532 4.01969 87.6543 5.40403 87.6543Z" fill="#69D5DD"/>
<path d="M5.40403 87.6543C6.78837 87.6543 7.91059 86.532 7.91059 85.1477C7.91059 83.7633 6.78837 82.6411 5.40403 82.6411C4.01969 82.6411 2.89746 83.7633 2.89746 85.1477C2.89746 86.532 4.01969 87.6543 5.40403 87.6543Z" fill="white" fill-opacity="0.7"/>
<path d="M79.3931 25.6154C83.0181 25.6154 85.9568 22.6767 85.9568 19.0517C85.9568 15.4267 83.0181 12.488 79.3931 12.488C75.7681 12.488 72.8295 15.4267 72.8295 19.0517C72.8295 22.6767 75.7681 25.6154 79.3931 25.6154Z" fill="#A4E5EA"/>
<path d="M87.7183 4.47124C88.6362 4.47124 89.3802 3.72722 89.3802 2.80941C89.3802 1.89161 88.6362 1.14758 87.7183 1.14758C86.8005 1.14758 86.0565 1.89161 86.0565 2.80941C86.0565 3.72722 86.8005 4.47124 87.7183 4.47124Z" fill="#69D5DD"/>
<path d="M87.7183 4.47124C88.6362 4.47124 89.3802 3.72722 89.3802 2.80941C89.3802 1.89161 88.6362 1.14758 87.7183 1.14758C86.8005 1.14758 86.0565 1.89161 86.0565 2.80941C86.0565 3.72722 86.8005 4.47124 87.7183 4.47124Z" fill="white" fill-opacity="0.7"/>
<path d="M20.9188 73.4061L27.3425 77.1412C26.8666 76.7973 26.4886 76.3351 26.2459 75.8004C26.0033 75.2658 25.9043 74.6771 25.9588 74.0925L19.5351 70.3687C19.4826 70.9515 19.5825 71.5379 19.8251 72.0704C20.0677 72.603 20.4446 73.0632 20.9188 73.4061Z" fill="#FFE18F"/>
<path d="M69.9237 15.3113L63.5 11.5875C62.9596 11.3377 62.3628 11.2353 61.7701 11.2906C61.1773 11.3459 60.6098 11.5571 60.125 11.9025L66.5487 15.6375C67.0325 15.2902 67.5995 15.0771 68.1923 15.0198C68.785 14.9625 69.3824 15.0631 69.9237 15.3113V15.3113Z" fill="#FFBF0F"/>
<path d="M25.835 44.6062L19.4113 40.8712L19.535 70.3575L25.9588 74.0925L25.835 44.6062Z" fill="#FFCE47"/>
<path d="M66.56 15.6375L60.1362 11.9025L24.125 32.6925L30.5487 36.4275L66.56 15.6375Z" fill="#FFCE47"/>
<path d="M30.56 36.4837L24.1363 32.7488C22.7595 33.6427 21.6136 34.8497 20.7924 36.2711C19.9712 37.6926 19.498 39.2881 19.4114 40.9274L25.8351 44.6625C25.9217 43.0232 26.395 41.4275 27.2162 40.0061C28.0374 38.5846 29.1832 37.3777 30.56 36.4837Z" fill="#FFE18F"/>
<path d="M30.56 36.4837C29.1832 37.3777 28.0374 38.5846 27.2162 40.0061C26.395 41.4275 25.9217 43.0232 25.8351 44.6625L25.9588 74.1487C25.9588 77.1637 28.0963 78.3675 30.7175 76.86L66.7175 56.07C68.0929 55.1772 69.2379 53.972 70.059 52.5526C70.8802 51.1332 71.3542 49.5399 71.4426 47.9025L71.3076 18.405C71.3076 15.4125 69.17 14.1862 66.56 15.6937L30.56 36.4837Z" fill="#EFBB3C"/>
<path opacity="0.5" d="M49.3311 51.2686L29.1057 40.6981L48.3323 47.9393L69.6397 16.0614L49.3311 51.2686Z" fill="#5F4602"/>
<g opacity="0.5">
<path d="M42.647 49.7771L28.4224 75.8987L44.716 51.3289L42.647 49.7771Z" fill="#5F4602"/>
<path d="M55.4492 43.4407L69.5445 51.3289L54.544 45.3804L55.4492 43.4407Z" fill="#5F4602"/>
</g>
</svg>
