<svg width="80" height="80" viewBox="0 0 80 80" fill="none" xmlns="http://www.w3.org/2000/svg">
<path d="M39.9701 79.9402C62.045 79.9402 79.9402 62.045 79.9402 39.9701C79.9402 17.8952 62.045 0 39.9701 0C17.8952 0 0 17.8952 0 39.9701C0 62.045 17.8952 79.9402 39.9701 79.9402Z" fill="#69D5DD"/>
<path d="M39.9701 79.9402C62.045 79.9402 79.9402 62.045 79.9402 39.9701C79.9402 17.8952 62.045 0 39.9701 0C17.8952 0 0 17.8952 0 39.9701C0 62.045 17.8952 79.9402 39.9701 79.9402Z" fill="white" fill-opacity="0.7"/>
<path d="M5.73716 61.9062C7.72887 61.9062 9.34347 60.2916 9.34347 58.2999C9.34347 56.3082 7.72887 54.6936 5.73716 54.6936C3.74546 54.6936 2.13086 56.3082 2.13086 58.2999C2.13086 60.2916 3.74546 61.9062 5.73716 61.9062Z" fill="#A4E5EA"/>
<path d="M4.35892 77.9148C5.58944 77.9148 6.58698 76.9173 6.58698 75.6868C6.58698 74.4562 5.58944 73.4587 4.35892 73.4587C3.1284 73.4587 2.13086 74.4562 2.13086 75.6868C2.13086 76.9173 3.1284 77.9148 4.35892 77.9148Z" fill="#69D5DD"/>
<path d="M4.35892 77.9148C5.58944 77.9148 6.58698 76.9173 6.58698 75.6868C6.58698 74.4562 5.58944 73.4587 4.35892 73.4587C3.1284 73.4587 2.13086 74.4562 2.13086 75.6868C2.13086 76.9173 3.1284 77.9148 4.35892 77.9148Z" fill="white" fill-opacity="0.7"/>
<path d="M70.1273 22.7692C73.3496 22.7692 75.9617 20.1571 75.9617 16.9349C75.9617 13.7126 73.3496 11.1005 70.1273 11.1005C66.9051 11.1005 64.293 13.7126 64.293 16.9349C64.293 20.1571 66.9051 22.7692 70.1273 22.7692Z" fill="#A4E5EA"/>
<path d="M77.5275 3.97445C78.3433 3.97445 79.0047 3.31309 79.0047 2.49726C79.0047 1.68144 78.3433 1.02008 77.5275 1.02008C76.7117 1.02008 76.0503 1.68144 76.0503 2.49726C76.0503 3.31309 76.7117 3.97445 77.5275 3.97445Z" fill="#69D5DD"/>
<path d="M77.5275 3.97445C78.3433 3.97445 79.0047 3.31309 79.0047 2.49726C79.0047 1.68144 78.3433 1.02008 77.5275 1.02008C76.7117 1.02008 76.0503 1.68144 76.0503 2.49726C76.0503 3.31309 76.7117 3.97445 77.5275 3.97445Z" fill="white" fill-opacity="0.7"/>
<path d="M51.208 16.6969L32.5878 6.29927C31.9512 5.92792 31.2085 5.98097 30.625 6.35232C30.0945 6.67061 27.9725 7.89074 27.389 8.20903C26.8054 8.52733 26.4341 9.11087 26.4341 9.85356V56.8551C26.4341 58.924 27.5481 60.8337 29.3518 61.8947L48.1842 72.7698C48.8208 73.1411 49.5104 73.0881 50.094 72.7167C50.5714 72.3984 52.8525 71.1783 53.383 70.807C53.8605 70.4887 54.2318 69.9582 54.2318 69.2685V21.7366C54.1788 19.6146 53.0117 17.7048 51.208 16.6969Z" fill="#69D5DD"/>
<path d="M29.2987 8.15637L47.919 18.554C49.7757 19.5619 50.8897 21.5247 50.8897 23.5937V71.1256C50.8897 72.5049 49.4043 73.4068 48.1842 72.7171L29.3518 61.8421C27.5481 60.8341 26.4341 58.8713 26.4341 56.8024V9.85394C26.4341 8.36857 28.0256 7.46674 29.2987 8.15637Z" fill="#5A449D"/>
<path d="M29.1397 12.5062L47.1233 22.5325C47.9721 23.0099 48.5557 23.9648 48.5557 24.9197V67.5711C48.5557 68.2608 47.813 68.6852 47.2294 68.3138L29.1928 57.9692C28.344 57.4918 27.8135 56.59 27.8135 55.582V13.3019C27.8135 12.6123 28.5562 12.1879 29.1397 12.5062Z" fill="#7D7DB7"/>
<path d="M48.5557 54.0967V24.9727C48.5557 23.9648 48.0252 23.0629 47.1233 22.5855L29.1397 12.5062C28.5562 12.1879 27.8135 12.6123 27.8135 13.3019V27.0947C30.8903 28.3679 34.3916 29.9593 37.6806 33.8319C43.463 40.7283 40.5453 45.1844 46.1685 51.7094C46.8581 52.5582 47.6538 53.354 48.5557 54.0967Z" fill="#8989C6"/>
</svg>
